Coordinates
version=1
nRows=10
nColumns=34
inDegrees=yes

Units are S.I. units (second, meters, Newtons, ...)
If the header above contains a line with 'inDegrees', this indicates whether rotational values are in degrees (yes) or radians (no).

endheader
time	pelvis_tilt	pelvis_list	pelvis_rotation	pelvis_tx	pelvis_ty	pelvis_tz	hip_flexion_r	hip_adduction_r	hip_rotation_r	knee_angle_r	ankle_angle_r	subtalar_angle_r	mtp_angle_r	hip_flexion_l	hip_adduction_l	hip_rotation_l	knee_angle_l	ankle_angle_l	subtalar_angle_l	mtp_angle_l	lumbar_extension	lumbar_bending	lumbar_rotation	arm_flex_r	arm_add_r	arm_rot_r	elbow_flex_r	pro_sup_r	arm_flex_l	arm_add_l	arm_rot_l	elbow_flex_l	pro_sup_l
      0.00000000	     -1.25361453	      0.22134976	     -6.54997028	      0.37186026	      0.94100152	     -0.15840058	      4.54346263	     -9.55461471	     -0.41285683	     11.83449995	      3.59509167	    -16.16659879	      0.00000000	      1.83786335	      3.42513781	      2.90790989	     11.03881692	     11.70955152	    -14.83574320	      0.00000000	     -0.90887621	     -0.72288508	      2.10941158	     33.42636608	      6.13288103	     37.21094470	    136.89913910	    119.45574222	     43.20522518	     12.54027712	     63.09869845	    123.65467722	     97.75194929
      0.01666670	     -3.70097208	     -0.38053334	     -5.48094058	      0.37547584	      0.93741843	     -0.16248353	      6.39351038	     -8.85740544	     -0.08974044	     11.38583053	      5.86824582	    -11.91295148	      0.00000000	      4.52463695	      2.91397515	      4.01987669	     10.84690017	     11.20956879	    -14.98615827	      0.00000000	      3.11046507	      0.15700560	      0.51226182	     33.27613473	      7.10249260	     36.51803732	    138.28322263	    117.44837057	     44.97303058	     11.71297694	     63.52711629	    126.24472211	     98.82559605
      0.03333330	     -4.32614007	      0.24372306	     -5.28970283	      0.37615101	      0.93431288	     -0.16666949	      7.07305059	     -9.77651090	     -0.15774392	     11.08241131	      6.83711091	    -12.06461281	      0.00000000	      5.42639155	      3.90982295	      3.99279908	     11.05979710	     11.50099853	    -14.83342480	      0.00000000	      3.99535299	     -0.89197805	      0.48810867	     32.49732228	      7.89153751	     36.73014763	    139.32843598	    116.93115443	     45.46338885	     11.15105337	     63.86923096	    127.96728468	     98.85641837
      0.05000000	     -4.83342951	      0.64799652	     -5.18606114	      0.37707288	      0.93341967	     -0.16983898	      7.79369924	    -10.41365088	     -0.01739489	     11.27955970	      7.25929707	    -11.84778961	      0.00000000	      5.75113317	      4.59835751	      4.60944215	     10.61427646	     11.17359898	    -15.16910378	      0.00000000	      4.96546411	     -1.43513692	      0.60320908	     31.61429975	      8.01992041	     38.08068363	    139.17611193	    116.13819156	     45.86002891	     10.97071555	     64.47032279	    127.76637475	     98.27361722
      0.06666670	     -4.83753717	      0.83397219	     -5.04314076	      0.37815181	      0.93061056	     -0.17266405	      7.95834046	    -10.82417753	     -0.11048590	     11.75235898	      7.52086285	    -12.14766862	      0.00000000	      5.58861373	      5.05672245	      5.10149084	     10.30962456	     11.33827728	    -15.16029072	      0.00000000	      5.13464887	     -1.56105458	      0.68513846	     31.05252349	      8.22878512	     38.49135627	    139.13359688	    116.04054296	     46.11163654	     11.07652252	     64.42465894	    127.62627606	     98.11855984
      0.08333330	     -5.54759676	      1.15907147	     -4.89063127	      0.37913386	      0.93224532	     -0.17573188	      9.13882649	    -11.24437460	     -0.09281722	     12.55933552	      7.43927642	    -12.82592242	      0.00000000	      6.36898967	      5.60139467	      5.84175270	     10.29697088	     10.71918318	    -16.31690761	      0.00000000	      6.16059382	     -1.86949755	      0.85660013	     30.68711095	      7.95064407	     40.05061033	    139.64815489	    115.08693649	     46.17215805	     11.28633805	     65.04670598	    126.84127697	     96.35061572
      0.10000000	     -5.65297781	      1.30304105	     -4.70034177	      0.37940810	      0.93638792	     -0.17901195	      9.54051447	    -11.51934835	     -0.13211021	     13.16743351	      6.58361603	    -14.06157492	      0.00000000	      6.43934977	      5.97891500	      6.80058159	     10.24596273	      9.60736147	    -17.85509992	      0.00000000	      6.49447693	     -1.97031368	      0.75091727	     30.21637214	      7.81619737	     39.77481530	    138.57524316	    111.12800267	     45.97177588	     11.11366349	     65.07687513	    126.87079902	     88.31487950
      0.11666670	     -5.51625503	      1.30749494	     -4.67149507	      0.37895795	      0.93547184	     -0.18290748	      9.86800322	    -11.69841310	     -0.41570711	     14.03074483	      6.33258059	    -14.06791194	      0.00000000	      6.31011243	      6.17825323	      6.85306815	     10.27252759	      9.49306176	    -17.71800499	      0.00000000	      6.25185071	     -1.86688163	      0.59137000	     30.05101043	      7.82571043	     39.91719393	    138.45359570	    111.11193710	     45.88750692	     11.16491218	     65.22070276	    126.60549907	     88.25454832
      0.13333330	     -5.40751292	      1.30657450	     -4.54997683	      0.38011736	      0.93680649	     -0.18625573	     10.30687242	    -11.91835850	     -0.83972615	     15.06558910	      6.12149700	    -14.23257851	      0.00000000	      6.22403977	      6.38754361	      7.10755859	     10.33697253	      9.34059297	    -17.53497080	      0.00000000	      5.93969347	     -1.94205891	      0.59447669	     29.96046145	      7.82337741	     40.15889152	    138.03363705	    111.09308014	     45.69484730	     11.23189733	     65.44443621	    126.29459703	     88.15770646
      0.15000000	     -5.68308387	      1.40884681	     -4.34780832	      0.37954710	      0.93583028	     -0.18859856	     11.33677431	    -12.20535420	     -1.03252848	     16.34639672	      5.81429260	    -15.08867048	      0.00000000	      6.68299806	      6.70009958	      7.48096282	     10.64156650	      9.20584926	    -17.81383330	      0.00000000	      6.38497278	     -2.09140642	      0.16610766	     30.24533233	      7.76739375	     41.21292499	    135.78382926	    110.82407177	     45.79235087	     11.10458355	     66.20997492	    125.34310942	     87.11079466
